<?xml version="1.0" encoding="UTF-8"?>
<svg version="1.1" xmlns="http://www.w3.org/2000/svg" width="833" height="280">
<path d="M0 0 C274.89 0 549.78 0 833 0 C833 92.4 833 184.8 833 280 C558.11 280 283.22 280 0 280 C0 187.6 0 95.2 0 0 Z " fill="#FBFAFB" transform="translate(0,0)"/>
<path d="M0 0 C1.03037888 0.00081573 1.03037888 0.00081573 2.08157349 0.00164795 C12.85671018 0.04086164 22.69019447 0.89457972 32.9375 4.375 C33.61796387 4.59462402 34.29842773 4.81424805 34.99951172 5.04052734 C44.15952329 8.01937575 52.03253886 11.79212119 59.9375 17.375 C61.1440625 18.15617187 61.1440625 18.15617187 62.375 18.953125 C89.2063502 36.66869597 105.18654962 63.62027263 112.9375 94.375 C116.04678019 109.72816887 115.42609871 128.37025574 110.9375 143.375 C110.60685547 144.51195312 110.60685547 144.51195312 110.26953125 145.671875 C105.57551576 161.46760966 98.13804325 174.49010326 87.9375 187.375 C91.74395019 191.29679717 95.75826 194.85658 99.9375 198.375 C101.1475897 199.39375073 102.35595201 200.41455714 103.5625 201.4375 C104.09101563 201.88222656 104.61953125 202.32695312 105.1640625 202.78515625 C107.50958413 204.88785956 109.71007627 207.14757627 111.9375 209.375 C99.5625 210.365 99.5625 210.365 86.9375 211.375 C88.8246875 214.5925 88.8246875 214.5925 90.75 217.875 C91.50175481 219.17382316 92.24906612 220.47524928 92.98828125 221.78125 C93.49355347 222.66780273 93.49355347 222.66780273 94.0090332 223.57226562 C95.27142827 226.02336349 96.16793799 228.54641341 97.01953125 231.1640625 C98.69092725 235.18963754 101.01580337 238.89103283 103.24609375 242.62890625 C105.9375 247.17818622 105.9375 247.17818622 105.9375 249.375 C102.87483768 247.96619253 100.39375906 246.28074975 97.765625 244.17578125 C93.15004224 240.52728196 88.43712781 237.03372148 83.6875 233.5625 C76.02033091 227.93563072 68.45009324 222.20624961 60.9375 216.375 C58.8755669 214.79092848 56.81305141 213.20761478 54.75 211.625 C47.19184647 205.81670045 39.6588622 199.97465135 32.15820312 194.09228516 C30.5833343 192.87442815 28.99159076 191.67825268 27.38867188 190.49755859 C26.56431641 189.88348145 25.73996094 189.2694043 24.890625 188.63671875 C24.13426758 188.08330811 23.37791016 187.52989746 22.59863281 186.9597168 C22.05045898 186.43676025 21.50228516 185.91380371 20.9375 185.375 C20.9375 184.385 20.9375 183.395 20.9375 182.375 C31.09527911 175.26455462 38.47147794 173.02393392 50.9375 174.375 C51.85015625 174.60445312 52.7628125 174.83390625 53.703125 175.0703125 C55.92648069 175.60286414 55.92648069 175.60286414 57.60546875 174.43359375 C67.71700738 163.64621963 74.67725612 152.12336469 79.9375 138.375 C80.30875 137.4159375 80.68 136.456875 81.0625 135.46875 C87.26545999 113.53685574 82.09759167 90.07504723 71.9375 70.375 C66.28316636 60.36483704 58.71801114 52.70244211 49.9375 45.375 C49.13957031 44.67632812 48.34164062 43.97765625 47.51953125 43.2578125 C44.474408 41.03731416 41.43239867 39.77371758 37.9375 38.375 C36.85210937 37.86839844 35.76671875 37.36179688 34.6484375 36.83984375 C20.88635228 30.53893588 7.82942493 29.95044162 -7.0625 30.375 C-8.09761719 30.39304687 -9.13273437 30.41109375 -10.19921875 30.4296875 C-27.69416854 31.29804997 -45.37586861 42.34487105 -57.265625 54.65625 C-60.52309909 58.26646632 -60.52309909 58.26646632 -63.0625 62.375 C-63.7225 62.375 -64.3825 62.375 -65.0625 62.375 C-65.17207031 62.94992188 -65.28164062 63.52484375 -65.39453125 64.1171875 C-66.14604511 66.65739226 -67.25780645 68.31458268 -68.75 70.5 C-79.18421145 87.36108082 -82.11416794 109.75445727 -77.93579102 128.9934082 C-72.31966705 150.90482178 -60.89657256 167.97207417 -42.0625 180.375 C-41.36125 180.890625 -40.66 181.40625 -39.9375 181.9375 C-29.04274133 189.40819166 -12.59608632 193.55776021 0.5390625 193.33984375 C12.33343811 193.19031125 18.8809988 194.8542496 27.41552734 202.99658203 C30.01009587 205.34642706 32.89309391 207.29745144 35.75 209.3125 C38.76953125 211.46484375 38.76953125 211.46484375 40.9375 213.375 C40.9375 214.365 40.9375 215.355 40.9375 216.375 C7.55876343 224.57328618 -30.52056513 222.52826783 -60.48828125 204.84765625 C-67.46856176 200.48550573 -73.52827707 195.47780748 -79.0625 189.375 C-80.27292969 188.17423828 -80.27292969 188.17423828 -81.5078125 186.94921875 C-101.7241745 166.57829741 -112.1389323 139.39461604 -112.4375 110.8125 C-112.10809806 79.32927614 -98.83446732 52.80371254 -77.3828125 30.6015625 C-66.82752612 20.43127137 -53.91704418 12.1776706 -40.0625 7.375 C-38.8353125 6.93542969 -37.608125 6.49585938 -36.34375 6.04296875 C-24.01292151 1.73652728 -13.07680149 -0.03891379 0 0 Z " fill="#686BF6" transform="translate(117.0625,26.625)"/>
<path d="M0 0 C0.84949219 0.38929687 1.69898438 0.77859375 2.57421875 1.1796875 C15.64718303 8.11636243 24.26235555 19.42298532 29.125 33.18359375 C32.53375347 48.05123722 30.65130965 62.57288441 22.6875 75.4375 C22.15511719 76.21996094 21.62273437 77.00242187 21.07421875 77.80859375 C19.80851819 79.91395224 19.80851819 79.91395224 20.18359375 82.125 C21.46199764 85.06104722 23.67723582 86.84314755 26 89 C27 90 28 91 29 92 C27.45049295 95.78671666 25.11710363 98.06455913 22.125 100.8125 C21.26132812 101.62332031 20.39765625 102.43414062 19.5078125 103.26953125 C17 105 17 105 14.83984375 104.90625 C10.59327468 102.81452171 7.67609193 98.80286749 5 95 C1.56472859 95.42940893 -1.10915126 96.05014706 -4.2734375 97.50390625 C-10.63696653 99.92347959 -17.40499198 99.6325302 -24.125 99.625 C-24.81842499 99.62745728 -25.51184998 99.62991455 -26.22628784 99.63244629 C-37.07232244 99.61924108 -45.19332036 98.61509372 -54 92 C-55.48306641 91.05833984 -55.48306641 91.05833984 -56.99609375 90.09765625 C-68.38751406 82.14291931 -74.21827418 71.79862509 -77.62890625 58.55859375 C-79.76941159 43.80037269 -77.58810752 29.03261331 -68.65234375 16.78125 C-63.15549505 9.99521819 -58.04215362 4.73213716 -50 1 C-48.67742187 0.27683594 -48.67742187 0.27683594 -47.328125 -0.4609375 C-33.5068944 -7.07903998 -13.80795395 -6.42888632 0 0 Z " fill="#151B31" transform="translate(375,89)"/>
<path d="M0 0 C3.97270851 3.7139817 6.21339258 7.1435436 7.984375 12.36328125 C8.5721875 13.87921875 8.5721875 13.87921875 9.171875 15.42578125 C10.3814529 21.28758183 9.984375 27.37798387 9.984375 33.36328125 C-7.505625 33.36328125 -24.995625 33.36328125 -43.015625 33.36328125 C-39.12840574 41.54853914 -39.12840574 41.54853914 -32.5078125 45.76953125 C-23.35499301 47.95014028 -15.47645003 46.9332576 -7.3203125 42.359375 C-5.015625 41.36328125 -5.015625 41.36328125 -2.9453125 41.45703125 C-0.38198009 42.66086348 0.93798266 44.24938283 2.734375 46.42578125 C3.34796875 47.15925781 3.9615625 47.89273438 4.59375 48.6484375 C5.05265625 49.21433594 5.5115625 49.78023437 5.984375 50.36328125 C4.54760997 53.91293602 2.87135602 55.43416067 -0.328125 57.48828125 C-1.08738281 57.98585938 -1.84664062 58.4834375 -2.62890625 58.99609375 C-9.60810699 62.99399924 -15.93811367 62.73019308 -23.828125 62.73828125 C-25.07400391 62.76277344 -26.31988281 62.78726563 -27.60351562 62.8125 C-34.7371703 62.83520659 -40.06607329 62.44939541 -46.015625 58.36328125 C-46.86511719 57.81027344 -47.71460938 57.25726563 -48.58984375 56.6875 C-57.5308898 49.76273421 -61.22984111 43.66415794 -63.015625 32.36328125 C-64.15592124 22.0755536 -62.62373943 12.17589292 -56.04296875 3.875 C-54.10985919 1.89853098 -52.16586984 0.09886655 -50.015625 -1.63671875 C-49.36464844 -2.1678125 -48.71367188 -2.69890625 -48.04296875 -3.24609375 C-34.0805198 -12.82341904 -12.66521155 -10.28434814 0 0 Z " fill="#151B31" transform="translate(734.015625,125.63671875)"/>
<path d="M0 0 C1.9609375 1.1171875 1.9609375 1.1171875 3.875 2.5 C5.03902344 3.33917969 5.03902344 3.33917969 6.2265625 4.1953125 C12.77123748 9.46089791 17.335298 16.13072871 18.875 24.5 C19.54737842 33.77000406 19.2218344 42.0760253 14.875 50.5 C14.215 51.16 13.555 51.82 12.875 52.5 C11.4135774 51.06564079 9.95596951 49.62739414 8.5 48.1875 C7.28183594 46.98673828 7.28183594 46.98673828 6.0390625 45.76171875 C3.875 43.5 3.875 43.5 1.875 40.5 C-1.60275179 42.01553404 -4.0807984 44.0773456 -6.875 46.625 C-7.67421875 47.34945312 -8.4734375 48.07390625 -9.296875 48.8203125 C-9.90015625 49.37460938 -10.5034375 49.92890625 -11.125 50.5 C-9.98299436 53.92601693 -8.92191945 54.74521651 -6.1875 57 C-3.61524808 59.12876021 -2.00239237 60.68391145 -0.125 63.5 C-4.7783301 66.2355502 -8.62425726 66.98620594 -13.9375 66.875 C-14.64527588 66.86339844 -15.35305176 66.85179687 -16.08227539 66.83984375 C-25.48209929 66.54660461 -31.27855571 64.31735791 -38.11328125 57.8046875 C-45.03606078 49.87373619 -47.67175326 39.55134567 -47.4453125 29.18359375 C-46.03038897 17.32929537 -40.78256182 9.50974018 -31.66015625 2.234375 C-23.4466471 -3.38472833 -9.22001454 -3.70769268 0 0 Z " fill="#F9F8F9" transform="translate(365.125,104.5)"/>
<path d="M0 0 C6.6 0 13.2 0 20 0 C20.02578125 2.866875 20.0515625 5.73375 20.078125 8.6875 C20.11660999 11.4843093 20.16174937 14.28093826 20.20751953 17.07763672 C20.23563035 19.01146743 20.25689379 20.94541093 20.27099609 22.87939453 C20.29256321 25.67017955 20.33928256 28.45962259 20.390625 31.25 C20.39185364 32.10553467 20.39308228 32.96106934 20.39434814 33.8425293 C20.53455555 39.67481355 21.75772617 44.10329929 25 49 C28.11090183 51.9279076 30.80623915 52.21396135 34.9375 52.375 C39.31245523 52.22548444 42.32940122 51.53446106 46 49 C49.5779936 45.13189881 51.09239872 42.13863065 51.20532227 36.89575195 C51.22526749 36.07512772 51.24521271 35.25450348 51.26576233 34.40901184 C51.28247482 33.52767075 51.29918732 32.64632965 51.31640625 31.73828125 C51.33718735 30.83248825 51.35796844 29.92669525 51.37937927 28.99345398 C51.44476558 26.09987984 51.50370904 23.20621493 51.5625 20.3125 C51.6056956 18.35090207 51.64931023 16.38931332 51.69335938 14.42773438 C51.80122443 9.61858126 51.90037907 4.80935927 52 0 C58.6 0 65.2 0 72 0 C72 22.44 72 44.88 72 68 C66.06 68 60.12 68 54 68 C54 65.36 54 62.72 54 60 C53.34 60 52.68 60 52 60 C51.62488281 60.90685547 51.62488281 60.90685547 51.2421875 61.83203125 C49.81214229 64.32786487 48.57480307 65.22224043 46.125 66.6875 C45.44695312 67.10386719 44.76890625 67.52023438 44.0703125 67.94921875 C36.86661105 71.60543703 25.8025536 71.23093339 18.05859375 69.24609375 C10.74564299 66.09075967 5.4075148 61.51712726 2.17094421 54.10011292 C-0.08332373 47.92246882 -0.39605103 42.3748578 -0.29296875 35.83984375 C-0.28872391 34.80936417 -0.28447906 33.77888458 -0.28010559 32.71717834 C-0.26344216 29.45700885 -0.22581301 26.19747961 -0.1875 22.9375 C-0.17243722 20.7142017 -0.15875162 18.49089361 -0.14648438 16.26757812 C-0.11614328 10.84461275 -0.05739765 5.42301486 0 0 Z " fill="#141A30" transform="translate(416,119)"/>
<path d="M0 0 C17.82 0 35.64 0 54 0 C54 16.86826347 54 16.86826347 46 25 C43.82436967 27.453565 41.69770462 29.9487559 39.5625 32.4375 C38.44452819 33.72050344 37.3260436 35.00306025 36.20703125 36.28515625 C32.58370486 40.45927145 29.08394899 44.72460326 25.609375 49.0234375 C24 51 24 51 23 52 C39.335 52.495 39.335 52.495 56 53 C56 58.28 56 63.56 56 69 C36.2 69 16.4 69 -4 69 C-4 54.39893617 -4 54.39893617 -0.25 50.5625 C0.57242188 49.67433594 1.39484375 48.78617188 2.2421875 47.87109375 C3.15226563 46.92363281 4.06234375 45.97617188 5 45 C6.98679584 42.73238736 8.92748316 40.42635256 10.875 38.125 C11.88961178 36.94444095 12.90524264 35.76475698 13.921875 34.5859375 C17.48490363 30.4442004 21.00812453 26.26910399 24.52294922 22.08642578 C26.29263722 19.98637825 28.05698339 17.94301661 30 16 C15.15 15.505 15.15 15.505 0 15 C0 10.05 0 5.1 0 0 Z " fill="#151B30" transform="translate(541,119)"/>
<path d="M0 0 C18.15 0 36.3 0 55 0 C55 15.57269654 55 15.57269654 51.546875 19.29296875 C51.05703125 19.75316406 50.5671875 20.21335938 50.0625 20.6875 C49.04184339 21.76325632 48.02232777 22.84009623 47.00390625 23.91796875 C46.49359863 24.43536621 45.98329102 24.95276367 45.45751953 25.48583984 C43.3210458 27.70533902 41.41968682 30.09255246 39.5 32.5 C36.04322747 36.74581843 32.53685002 40.9459204 29 45.125 C28.27780273 45.97868164 28.27780273 45.97868164 27.54101562 46.84960938 C24.13539567 50.86460433 24.13539567 50.86460433 23 52 C38.84 52.495 38.84 52.495 55 53 C55 57.95 55 62.9 55 68 C35.86 68 16.72 68 -3 68 C-3 54 -3 54 0.9375 48.8125 C2.61883621 47.20187419 4.30642968 45.59775671 6 44 C7.46604862 42.27384598 8.90341987 40.52296346 10.3125 38.75 C13.93606334 34.27646501 17.63079144 29.87248461 21.375 25.5 C21.88716064 24.90026367 22.39932129 24.30052734 22.92700195 23.68261719 C25.20996171 21.02352021 27.51983617 18.48016383 30 16 C15.15 15.505 15.15 15.505 0 15 C0 10.05 0 5.1 0 0 Z " fill="#131A2F" transform="translate(609,119)"/>
<path d="M0 0 C1 1 1 1 1.09765625 4.81640625 C1.09098089 6.39846682 1.07901875 7.98051159 1.0625 9.5625 C1.05798828 10.36880859 1.05347656 11.17511719 1.04882812 12.00585938 C1.03700518 14.00393756 1.01906914 16.00197783 1 18 C-2.253684 19.08456133 -4.28939668 18.94144244 -7.6875 18.75 C-12.84696367 18.71876838 -16.05589483 19.46150702 -20.37890625 22.22265625 C-25.1936412 27.50146203 -25.46007613 33.65432939 -25.51171875 40.43359375 C-25.52966995 41.31153091 -25.54762115 42.18946808 -25.56611633 43.0940094 C-25.61993679 45.87512529 -25.65402364 48.65607237 -25.6875 51.4375 C-25.72069808 53.33270564 -25.75519003 55.22788908 -25.79101562 57.12304688 C-25.87806327 61.7487184 -25.93837189 66.37364187 -26 71 C-32.6 71 -39.2 71 -46 71 C-46 48.23 -46 25.46 -46 2 C-39.4 2 -32.8 2 -26 2 C-25.67 3.98 -25.34 5.96 -25 8 C-24.154375 7.236875 -23.30875 6.47375 -22.4375 5.6875 C-15.34759101 -0.10286651 -8.99418471 -0.73769338 0 0 Z " fill="#13192E" transform="translate(802,117)"/>
<path d="M0 0 C6.6 0 13.2 0 20 0 C20 22.44 20 44.88 20 68 C13.4 68 6.8 68 0 68 C0 45.56 0 23.12 0 0 Z " fill="#101730" transform="translate(504,119)"/>
<path d="M0 0 C1.12474228 -0.01260864 2.24948456 -0.02521729 3.40830994 -0.03820801 C4.61878494 -0.03011108 5.82925995 -0.02201416 7.07641602 -0.01367188 C8.32407242 -0.01749878 9.57172882 -0.02132568 10.85719299 -0.02526855 C13.49634272 -0.02799121 16.13401119 -0.02262063 18.77294922 -0.00390625 C22.14700078 0.01886118 25.519778 0.00577359 28.89378262 -0.01819611 C32.12137201 -0.03617176 35.34880995 -0.02356424 38.57641602 -0.01367188 C39.78486679 -0.0217688 40.99331757 -0.02986572 42.23838806 -0.03820801 C43.3662825 -0.02559937 44.49417694 -0.01299072 45.65625 0 C46.645681 0.00318237 47.635112 0.00636475 48.65452576 0.00964355 C52.18810592 0.6650976 53.88247087 1.98234134 56.39282227 4.51757812 C56.93508778 8.93316878 56.88119192 10.78502364 54.39282227 14.51757812 C51.33281222 15.53758147 49.19695735 15.6621469 45.9909668 15.69458008 C44.33377121 15.71383293 44.33377121 15.71383293 42.64309692 15.73347473 C41.44933441 15.74086166 40.2555719 15.7482486 39.02563477 15.75585938 C37.79875946 15.76393112 36.57188416 15.77200287 35.30783081 15.78031921 C32.71036187 15.79415738 30.11287476 15.80488073 27.51538086 15.81274414 C23.54058535 15.82997942 19.56661663 15.87387249 15.59204102 15.91796875 C13.06991172 15.92809364 10.54777535 15.93661038 8.02563477 15.94335938 C6.83592072 15.96086746 5.64620667 15.97837555 4.42044067 15.99641418 C-3.78409616 15.97481136 -3.78409616 15.97481136 -7.86157227 13.7097168 C-9.60717773 11.51757812 -9.60717773 11.51757812 -10.16967773 8.01757812 C-9.17478464 1.82713217 -6.02901352 0.01940712 0 0 Z " fill="#726AF5" transform="translate(108.607177734375,102.482421875)"/>
<path d="M0 0 C1.60681641 -0.01902626 1.60681641 -0.01902626 3.24609375 -0.03843689 C4.40238281 -0.03550125 5.55867188 -0.03256561 6.75 -0.02954102 C7.93722656 -0.03478287 9.12445313 -0.04002472 10.34765625 -0.04542542 C12.85936704 -0.05185284 15.3711079 -0.05049937 17.8828125 -0.04199219 C21.73491756 -0.03348059 25.58554148 -0.06223911 29.4375 -0.09399414 C31.87499955 -0.09560608 34.31250174 -0.09502875 36.75 -0.09204102 C37.90628906 -0.10327499 39.06257813 -0.11450897 40.25390625 -0.12608337 C41.86072266 -0.11201195 41.86072266 -0.11201195 43.5 -0.09765625 C44.91539062 -0.097407 44.91539062 -0.097407 46.359375 -0.09715271 C48.75 0.40405273 48.75 0.40405273 50.5546875 2.2440033 C52.16924732 5.16167464 52.16922883 7.1200936 51.75 10.40405273 C50.5546875 12.06338501 50.5546875 12.06338501 48.75 13.40405273 C46.359375 13.78500366 46.359375 13.78500366 43.5 13.79223633 C42.42878906 13.80169281 41.35757813 13.81114929 40.25390625 13.82089233 C38.51947266 13.81178329 38.51947266 13.81178329 36.75 13.80249023 C35.56277344 13.80536041 34.37554687 13.80823059 33.15234375 13.81118774 C30.64062015 13.8132305 28.12888072 13.80768596 25.6171875 13.79516602 C21.76526428 13.77911634 17.91439045 13.79500861 14.0625 13.81420898 C11.62499768 13.81222659 9.18749601 13.808383 6.75 13.80249023 C5.59371094 13.80856293 4.43742187 13.81463562 3.24609375 13.82089233 C2.17488281 13.81143585 1.10367188 13.80197937 0 13.79223633 C-0.94359375 13.78984955 -1.8871875 13.78746277 -2.859375 13.78500366 C-5.25 13.40405273 -5.25 13.40405273 -7.0546875 12.09854126 C-9.05495363 9.26294135 -8.60801748 6.74554921 -8.25 3.40405273 C-5.92974841 0.11676307 -3.88657117 0.02225437 0 0 Z " fill="#5E6CF5" transform="translate(107.25,129.595947265625)"/>
<path d="M0 0 C0.82830322 -0.0004985 1.65660645 -0.00099701 2.51000977 -0.00151062 C4.25832523 0.00082609 6.0066443 0.01053092 7.75488281 0.02709961 C10.42804101 0.05069775 13.10020154 0.0476569 15.7734375 0.04101562 C17.47396427 0.0465926 19.17448684 0.0537026 20.875 0.0625 C22.07201538 0.06113289 22.07201538 0.06113289 23.29321289 0.05973816 C30.38176636 0.15012123 30.38176636 0.15012123 33.4375 2.36328125 C34.83685013 5.16198152 34.69015405 7.26826917 34.4375 10.36328125 C32.92144773 12.36590287 32.02538274 13.24522996 29.54040527 13.74423218 C28.82775513 13.74661896 28.11510498 13.74900574 27.38085938 13.75146484 C26.16444763 13.76564957 26.16444763 13.76564957 24.92346191 13.78012085 C24.05153198 13.77404816 23.17960205 13.76797546 22.28125 13.76171875 C20.93323303 13.76602402 20.93323303 13.76602402 19.5579834 13.77041626 C17.65827809 13.7724574 15.7585518 13.76692403 13.85888672 13.75439453 C10.9484159 13.73834146 8.03933379 13.75424138 5.12890625 13.7734375 C3.2838511 13.77145508 1.43879681 13.76761142 -0.40625 13.76171875 C-1.7141449 13.77082779 -1.7141449 13.77082779 -3.04846191 13.78012085 C-3.85940308 13.77066437 -4.67034424 13.76120789 -5.50585938 13.75146484 C-6.57483459 13.74788467 -6.57483459 13.74788467 -7.66540527 13.74423218 C-10.16218523 13.24285993 -11.04450957 12.3826013 -12.5625 10.36328125 C-13 6.86328125 -13 6.86328125 -12.5625 3.36328125 C-9.1380276 -0.52903056 -4.81211066 -0.05553603 0 0 Z " fill="#5073F5" transform="translate(111.5625,156.63671875)"/>
<path d="M0 0 C2.625 1.6875 2.625 1.6875 4.625 4.6875 C5.22630648 8.09875792 5.26615692 11.28067466 4.625 14.6875 C2.5137997 17.55640102 -0.20122869 19.10061435 -3.375 20.6875 C-7.16915519 21.21868173 -10.83831178 21.53839348 -14.265625 19.640625 C-17.77488934 16.74463015 -19.25364503 14.94959167 -19.6875 10.4375 C-19.31828153 6.00687834 -18.20661153 4.06970266 -15.375 0.6875 C-10.8950195 -2.83248468 -4.9560358 -1.92734726 0 0 Z " fill="#181E31" transform="translate(522.375,85.3125)"/>
<path d="M0 0 C6.32372712 3.36020924 6.09287518 5.80206303 8.5546875 13.1875 C-2.6653125 13.1875 -13.8853125 13.1875 -25.4453125 13.1875 C-24.25686403 7.24525765 -23.27027977 4.62417636 -18.5078125 0.875 C-12.80628852 -2.07239799 -6.01241157 -1.9977342 0 0 Z " fill="#F2F1F3" transform="translate(716.4453125,132.8125)"/>
<path d="M0 0 C1.96515977 3.78117795 3.47065328 7.68743919 5 11.66015625 C6.4593569 15.07482338 7.32405176 16.7200713 10.8203125 18.16796875 C11.91085938 18.50441406 13.00140625 18.84085938 14.125 19.1875 C15.22070312 19.53167969 16.31640625 19.87585938 17.4453125 20.23046875 C18.70988281 20.61138672 18.70988281 20.61138672 20 21 C20 21.66 20 22.32 20 23 C19.33613281 23.09796875 18.67226563 23.1959375 17.98828125 23.296875 C10.63644788 24.45729433 10.63644788 24.45729433 5 29 C4.0555619 31.59720477 3.31726353 34.16753994 2.67578125 36.85546875 C2.34126953 37.91701172 2.34126953 37.91701172 2 39 C1.01 39.495 1.01 39.495 0 40 C-0.09796875 39.40832031 -0.1959375 38.81664062 -0.296875 38.20703125 C-1.24571916 33.19288066 -2.02649993 29.47681256 -6 26 C-9.26170931 24.44094398 -12.58056226 23.16809037 -16 22 C-13.76530827 19.76530827 -11.95914323 19.09150509 -9.0625 17.875 C-5.44450902 16.10249722 -3.40265727 14.94328866 -1.9375 11.125 C-1.35585065 9.08033369 -1.35585065 9.08033369 -1 7 C-0.87367188 6.31679688 -0.74734375 5.63359375 -0.6171875 4.9296875 C-0.3589045 3.29389519 -0.17157764 1.64714532 0 0 Z " fill="#76ADF3" transform="translate(244,20)"/>
<path d="M0 0 C6.6 0 13.2 0 20 0 C20 22.44 20 44.88 20 68 C13.4 68 6.8 68 0 68 C0 45.56 0 23.12 0 0 Z M2 2 C2 23.45 2 44.9 2 67 C7.28 67 12.56 67 18 67 C18 45.55 18 24.1 18 2 C12.72 2 7.44 2 2 2 Z " fill="#0E1016" transform="translate(504,119)"/>
<path d="M0 0 C2.23077141 2.23077141 2.50484061 3.39211073 3.3125 6.375 C4.69109831 10.65482758 6.02704077 12.65234227 10 15 C12.30935298 16.10426442 14.61303041 17.06393349 17 18 C14.65959474 19.17020263 12.32600701 20.3026091 9.9375 21.375 C6.25202089 23.41377568 4.61674155 24.97910475 3.37890625 29.03515625 C2.87330088 31.01224761 2.43212872 33.00555977 2 35 C1.34 35 0.68 35 0 35 C-0.14695313 34.40832031 -0.29390625 33.81664062 -0.4453125 33.20703125 C-2.13839474 27.24232198 -3.76466041 24.38757267 -9 21 C-12.21265916 19.67649342 -12.21265916 19.67649342 -15 19 C-13.60963059 16.21926117 -11.97549707 16.0900923 -9.125 14.9375 C-5.25705488 13.091029 -5.25705488 13.091029 -2.70703125 9.77734375 C-1.98501611 7.5233371 -1.44791566 5.32220352 -1 3 C-0.67 2.01 -0.34 1.02 0 0 Z " fill="#9179F5" transform="translate(213,4)"/>
<path d="M0 0 C3.28931514 1.72689045 3.8140267 2.4420801 5 6 C5.72773537 12.94147583 5.72773537 12.94147583 3.625 16 C2 17 2 17 0 17 C0 17.66 0 18.32 0 19 C-8.89952153 19.29665072 -8.89952153 19.29665072 -12 17 C-14.30398694 14.69601306 -14.94423606 13.36644873 -15.4375 10.125 C-14.88939233 6.20994522 -13.43242523 4.0763025 -11 1 C-7.5607468 -0.7196266 -3.76835438 -0.38219964 0 0 Z " fill="#838694" transform="translate(654,226)"/>
<path d="M0 0 C3.19584949 2.9238623 4.79704246 4.75688506 5.5 9.0625 C4.90545991 12.55542304 4.36912024 14.33473973 2 17 C-1.9060755 18.81938616 -5.08801888 19.17207191 -9.3125 18.375 C-12.30733347 16.84275962 -13.52975298 16.02217443 -15 13 C-15.49500009 9.65874937 -15.72317495 7.24131179 -13.98046875 4.25 C-9.76018536 -1.05404197 -6.43730953 -1.66482143 0 0 Z " fill="#8B8E9B" transform="translate(443,226)"/>
<path d="M0 0 C2.62400023 0.5934734 3.71855495 1.16472762 5.54296875 3.109375 C7.67706676 7.02188801 7.99762355 9.15806011 7.41796875 13.546875 C6.42796875 15.031875 6.42796875 15.031875 5.41796875 16.546875 C6.07796875 16.546875 6.73796875 16.546875 7.41796875 16.546875 C7.08796875 17.536875 6.75796875 18.526875 6.41796875 19.546875 C-5.84437965 19.51368867 -5.84437965 19.51368867 -9.66015625 17.390625 C-12.16259037 14.68684561 -12.58099178 12.60612502 -12.64453125 8.984375 C-10.37597796 1.64493789 -7.57529527 -0.4028222 0 0 Z " fill="#8A8D9A" transform="translate(692.58203125,225.453125)"/>
<path d="M0 0 C3 2.0625 3 2.0625 5 5 C5.61493641 8.89459726 5.56777996 10.99348099 3.625 14.4375 C-0.46077803 16.86951073 -4.37118195 16.73815039 -9 16 C-11.625 14.5 -11.625 14.5 -13 12 C-13.59392053 9.18608526 -13.65009889 6.8075067 -13 4 C-9.51608626 -0.35489218 -5.28546756 -1.21480504 0 0 Z " fill="#7A6FF4" transform="translate(84,102)"/>
<path d="M0 0 C1.5625 1.125 1.5625 1.125 2.5625 3.125 C2.90753098 6.85133459 3.04798923 9.26436 1.1875 12.5625 C-2.89827803 14.99451073 -6.80868195 14.86315039 -11.4375 14.125 C-14.0625 12.625 -14.0625 12.625 -15.4375 10.125 C-16.06439951 7.1000577 -15.89237452 5.30912162 -15.4375 2.125 C-11.33129274 -1.98120726 -5.27525549 -1.89368146 0 0 Z " fill="#666DF5" transform="translate(86.4375,129.875)"/>
<path d="M0 0 C11.625 -0.25 11.625 -0.25 15 2 C15.3125 5.5 15.3125 5.5 15 9 C14.34 9.66 13.68 10.32 13 11 C13.39504441 13.9628331 14.59817629 16.38326241 16 19 C12.84859577 18.65930765 11.39218439 18.41923159 9.1875 16.0625 C8 14 8 14 8 12 C6.68 12 5.36 12 4 12 C4 14.31 4 16.62 4 19 C2.68 19 1.36 19 0 19 C0 12.73 0 6.46 0 0 Z " fill="#9294A1" transform="translate(345,226)"/>
<path d="M0 0 C3 1.5625 3 1.5625 5 4 C5.625 7.5 5.625 7.5 5 11 C2.8972811 13.56268866 1.3454726 14.7368733 -1.9375 15.37890625 C-5.60666553 15.59433074 -7.69878843 15.15688103 -11 13.4375 C-13 11 -13 11 -13.625 7.5 C-13 4 -13 4 -11 1.5625 C-7.15146708 -0.44194423 -4.25205208 -0.83155051 0 0 Z " fill="#5676F5" transform="translate(84,156)"/>
<path d="M0 0 C2.54879045 1.27439522 2.70344661 2.29822064 3.8125 4.875 C5.59622601 8.61614818 7.18478409 10.19279246 11 12 C11.66 12.66 12.32 13.32 13 14 C12.46890625 14.18433594 11.9378125 14.36867188 11.390625 14.55859375 C6.74905659 16.4643472 4.53457919 18.06899352 2.5 22.75 C1.97349762 24.15703223 1.46406789 25.57115941 1 27 C-0.0851103 24.84801655 -1.13573113 22.69837527 -2.125 20.5 C-4.75702297 16.99063604 -8.02865993 15.68852701 -12 14 C-10.71605693 11.43211387 -9.74800495 11.40306421 -7.125 10.375 C-3.60865192 8.72395485 -2.33132308 7.40790712 -1 3.75 C-0.67 2.5125 -0.34 1.275 0 0 Z " fill="#8D76F5" transform="translate(225,54)"/>
<path d="M0 0 C5.58879398 1.1177588 6.08027185 1.73460129 9.3125 6.0625 C10.00988281 6.98160156 10.70726562 7.90070313 11.42578125 8.84765625 C11.94527344 9.55792969 12.46476562 10.26820313 13 11 C13.33 7.37 13.66 3.74 14 0 C15.32 0 16.64 0 18 0 C18 6.27 18 12.54 18 19 C12.6011977 17.92023954 12.22473526 17.65936435 9.25 13.5 C8.65703125 12.6853125 8.0640625 11.870625 7.453125 11.03125 C6.97359375 10.3609375 6.4940625 9.690625 6 9 C5.67 8.67 5.34 8.34 5 8 C4.67 11.63 4.34 15.26 4 19 C2.68 19 1.36 19 0 19 C0 12.73 0 6.46 0 0 Z " fill="#9A9CA8" transform="translate(368,226)"/>
<path d="M0 0 C1.32 0 2.64 0 4 0 C6.140625 2.1875 6.140625 2.1875 8.25 5 C8.95640625 5.928125 9.6628125 6.85625 10.390625 7.8125 C10.92171875 8.534375 11.4528125 9.25625 12 10 C12.33 6.7 12.66 3.4 13 0 C14.32 0 15.64 0 17 0 C17 5.94 17 11.88 17 18 C12 17 12 17 10.26953125 15.1875 C9.78871094 14.465625 9.30789063 13.74375 8.8125 13 C6.8783392 9.97055277 6.8783392 9.97055277 4 8 C4 11.3 4 14.6 4 18 C2.68 18 1.36 18 0 18 C0 12.06 0 6.12 0 0 Z " fill="#838694" transform="translate(524,226)"/>
<path d="M0 0 C5.35886617 1.07177323 5.803125 1.33976716 8.8125 5.4375 C9.41707031 6.24058594 10.02164062 7.04367188 10.64453125 7.87109375 C12 10 12 10 12 12 C12.66 12 13.32 12 14 12 C14 8.04 14 4.08 14 0 C14.99 0 15.98 0 17 0 C17 6.27 17 12.54 17 19 C15.68 19 14.36 19 13 19 C11.22331107 17.02328648 9.74918047 15.16819586 8.25 13 C7.83878906 12.42765625 7.42757813 11.8553125 7.00390625 11.265625 C5.99087007 9.85208615 4.9938627 8.4270849 4 7 C3.67 10.63 3.34 14.26 3 18 C2.01 18 1.02 18 0 18 C0 12.06 0 6.12 0 0 Z " fill="#868997" transform="translate(456,226)"/>
<path d="M0 0 C5.58879398 1.1177588 6.08027185 1.73460129 9.3125 6.0625 C10.00988281 6.98160156 10.70726562 7.90070313 11.42578125 8.84765625 C11.94527344 9.55792969 12.46476563 10.26820313 13 11 C13.33 7.37 13.66 3.74 14 0 C14.99 0 15.98 0 17 0 C17 5.94 17 11.88 17 18 C11.64113383 16.92822677 11.196875 16.66023284 8.1875 12.5625 C7.28064453 11.35787109 7.28064453 11.35787109 6.35546875 10.12890625 C5 8 5 8 5 6 C4.34 6 3.68 6 3 6 C3 9.96 3 13.92 3 18 C2.01 18 1.02 18 0 18 C0 12.06 0 6.12 0 0 Z " fill="#898C99" transform="translate(595,226)"/>
<path d="M0 0 C4.29 0 8.58 0 13 0 C13 0.99 13 1.98 13 3 C10.03 3 7.06 3 4 3 C4 4.65 4 6.3 4 8 C6.64 8 9.28 8 12 8 C12 8.99 12 9.98 12 11 C9.36 11 6.72 11 4 11 C4 12.32 4 13.64 4 15 C6.97 15 9.94 15 13 15 C13 16.32 13 17.64 13 19 C8.71 19 4.42 19 0 19 C0 12.73 0 6.46 0 0 Z " fill="#868996" transform="translate(792,226)"/>
<path d="M0 0 C4.29 0 8.58 0 13 0 C13 0.99 13 1.98 13 3 C10.03 3 7.06 3 4 3 C4 4.65 4 6.3 4 8 C6.97 8 9.94 8 13 8 C13 8.99 13 9.98 13 11 C10.03 11 7.06 11 4 11 C4 12.65 4 14.3 4 16 C7.3 16 10.6 16 14 16 C14 16.99 14 17.98 14 19 C9.38 19 4.76 19 0 19 C0 12.73 0 6.46 0 0 Z " fill="#9496A2" transform="translate(502,226)"/>
<path d="M0 0 C1.32 0 2.64 0 4 0 C4.06058594 0.99902344 4.12117188 1.99804688 4.18359375 3.02734375 C4.26738281 4.31769531 4.35117187 5.60804688 4.4375 6.9375 C4.51871094 8.22527344 4.59992188 9.51304687 4.68359375 10.83984375 C4.64919188 13.86023957 4.64919188 13.86023957 6 15 C7.65 15 9.3 15 11 15 C11.33 10.05 11.66 5.1 12 0 C13.32 0 14.64 0 16 0 C16.10853983 2.22808159 16.18583307 4.45769932 16.25 6.6875 C16.29640625 7.92886719 16.3428125 9.17023438 16.390625 10.44921875 C15.9343076 14.59714393 15.02981114 16.17676689 12 19 C10 19.6640625 10 19.6640625 8 19.625 C7.34 19.63789063 6.68 19.65078125 6 19.6640625 C2.78802281 18.5975857 1.72693782 16.85403219 0 14 C-0.390625 10.44921875 -0.390625 10.44921875 -0.25 6.6875 C-0.21390625 5.43324219 -0.1778125 4.17898437 -0.140625 2.88671875 C-0.07101562 1.45779297 -0.07101562 1.45779297 0 0 Z " fill="#9295A2" transform="translate(320,226)"/>
<path d="M0 0 C1.32 0 2.64 0 4 0 C4.06058594 0.99902344 4.12117187 1.99804688 4.18359375 3.02734375 C4.26738281 4.31769531 4.35117187 5.60804688 4.4375 6.9375 C4.51871094 8.22527344 4.59992187 9.51304687 4.68359375 10.83984375 C4.64919188 13.86023957 4.64919188 13.86023957 6 15 C7.66617115 15.04063832 9.33388095 15.042721 11 15 C12.41634833 12.16730334 12.3463005 9.52533562 12.5625 6.375 C12.64628906 5.18648437 12.73007812 3.99796875 12.81640625 2.7734375 C12.87699219 1.85820312 12.93757812 0.94296875 13 0 C13.99 0 14.98 0 16 0 C16.10826289 2.4178712 16.18739789 4.83087556 16.25 7.25 C16.30027344 8.27287109 16.30027344 8.27287109 16.3515625 9.31640625 C16.41795714 12.73573004 16.25750744 14.64279388 14.234375 17.44921875 C11.90105378 19.06867421 10.80305648 19.56797472 8 19.5625 C7.34 19.58441406 6.68 19.60632813 6 19.62890625 C2.76717484 18.61233428 1.72449516 16.85381058 0 14 C-0.390625 10.44921875 -0.390625 10.44921875 -0.25 6.6875 C-0.21390625 5.43324219 -0.1778125 4.17898437 -0.140625 2.88671875 C-0.07101562 1.45779297 -0.07101562 1.45779297 0 0 Z " fill="#A0A2AC" transform="translate(708,226)"/>
<path d="M0 0 C4.95 0 9.9 0 15 0 C13.98167258 5.09163709 13.38501938 6.12718497 10 9.6875 C7.15990613 12.60666651 7.15990613 12.60666651 5 16 C8.3 16 11.6 16 15 16 C15 16.99 15 17.98 15 19 C10.05 19 5.1 19 0 19 C1.06086187 14.7565525 2.46598333 12.71202222 5.0625 9.25 C6.16271484 7.77273437 6.16271484 7.77273437 7.28515625 6.265625 C7.85105469 5.51796875 8.41695312 4.7703125 9 4 C6.03 3.67 3.06 3.34 0 3 C0 2.01 0 1.02 0 0 Z " fill="#8F919E" transform="translate(745,226)"/>
<path d="M0 0 C17.82 0 35.64 0 54 0 C54 4.62 54 9.24 54 14 C52.68 14.99 51.36 15.98 50 17 C50.495 15.515 50.495 15.515 51 14 C51.33 10.04 51.66 6.08 52 2 C34.84 2 17.68 2 0 2 C0 1.34 0 0.68 0 0 Z " fill="#0D101A" transform="translate(610,119)"/>
<path d="M0 0 C6.27 0 12.54 0 19 0 C19 14.19 19 28.38 19 43 C18.67 43 18.34 43 18 43 C18 29.47 18 15.94 18 2 C12.72 2 7.44 2 2 2 C2.020625 3.98 2.04125 5.96 2.0625 8 C2.11497772 19.00880235 1.51356342 30.00619161 1 41 C0.67 41 0.34 41 0 41 C0 27.47 0 13.94 0 0 Z " fill="#0B0E18" transform="translate(468,119)"/>
<path d="M0 0 C2.73251347 1.99399631 3.83247946 3.1623973 4.5 6.5 C3.83247946 9.8376027 2.73251347 11.00600369 0 13 C-3.32374383 13.66474877 -4.54002606 13.30261443 -7.375 11.4375 C-9 9 -9 9 -8.9375 5.375 C-7.54306692 0.35504089 -4.94190347 -0.72320539 0 0 Z " fill="#F5F4F6" transform="translate(652,229)"/>
<path d="M0 0 C1.23556641 0.01740234 1.23556641 0.01740234 2.49609375 0.03515625 C3.32238281 0.04417969 4.14867187 0.05320313 5 0.0625 C5.63808594 0.07410156 6.27617188 0.08570313 6.93359375 0.09765625 C7.26359375 1.41765625 7.59359375 2.73765625 7.93359375 4.09765625 C5.29359375 4.09765625 2.65359375 4.09765625 -0.06640625 4.09765625 C-0.06640625 4.75765625 -0.06640625 5.41765625 -0.06640625 6.09765625 C1.04734375 6.55140625 2.16109375 7.00515625 3.30859375 7.47265625 C6.93359375 9.09765625 6.93359375 9.09765625 8.93359375 11.09765625 C9.18359375 13.59765625 9.18359375 13.59765625 8.93359375 16.09765625 C6.56906182 18.46218818 5.67489446 18.46418329 2.43359375 18.78515625 C1.63953125 18.87152344 0.84546875 18.95789063 0.02734375 19.046875 C-2.06640625 19.09765625 -2.06640625 19.09765625 -4.06640625 18.09765625 C-3.73640625 16.77765625 -3.40640625 15.45765625 -3.06640625 14.09765625 C-2.40640625 14.42765625 -1.74640625 14.75765625 -1.06640625 15.09765625 C0.93319387 15.13764825 2.93406617 15.14112424 4.93359375 15.09765625 C5.26359375 14.10765625 5.59359375 13.11765625 5.93359375 12.09765625 C5.29550781 11.89269531 4.65742187 11.68773437 4 11.4765625 C3.17371094 11.20714844 2.34742188 10.93773437 1.49609375 10.66015625 C0.67238281 10.39332031 -0.15132812 10.12648437 -1 9.8515625 C-3.06640625 9.09765625 -3.06640625 9.09765625 -4.06640625 8.09765625 C-3.21507966 0.15194138 -3.21507966 0.15194138 0 0 Z " fill="#858896" transform="translate(818.06640625,225.90234375)"/>
<path d="M0 0 C0.99 0.66 1.98 1.32 3 2 C3 2.99 3 3.98 3 5 C1.95199219 4.85691406 1.95199219 4.85691406 0.8828125 4.7109375 C-0.02726562 4.60007813 -0.93734375 4.48921875 -1.875 4.375 C-2.77992188 4.25898438 -3.68484375 4.14296875 -4.6171875 4.0234375 C-5.40351563 4.01570312 -6.18984375 4.00796875 -7 4 C-9.3721969 5.94458314 -9.3721969 5.94458314 -9.3125 9.5 C-9.209375 10.655 -9.10625 11.81 -9 13 C-5.71570724 15.18952851 -4.79033543 15.27734162 -1 15 C0.34332728 14.70955086 1.68225804 14.39044206 3 14 C2.67 15.32 2.34 16.64 2 18 C-6.6409396 19.54362416 -6.6409396 19.54362416 -11.125 17.75 C-14.09469571 13.39444629 -13.80478137 9.09952811 -13 4 C-10.27212563 -1.09993904 -5.23238227 -0.82870143 0 0 Z " fill="#868997" transform="translate(419,226)"/>
<path d="M0 0 C1.875 1.125 1.875 1.125 3 3 C3.45185216 6.53950857 3.42109443 8.33326715 1.5 11.375 C1.005 11.91125 0.51 12.4475 0 13 C-3.375 12.6875 -3.375 12.6875 -7 12 C-9.31282587 8.53076119 -9.42478586 7.07794425 -9 3 C-6.79086995 -0.68188342 -4.01844539 -0.50230567 0 0 Z " fill="#F6F5F6" transform="translate(441,229)"/>
<path d="M0 0 C1.9375 1.5625 1.9375 1.5625 3 4 C2.67272727 10.32727273 2.67272727 10.32727273 0 13 C-3.5 12.8125 -3.5 12.8125 -7 12 C-9.31282587 8.53076119 -9.42478586 7.07794425 -9 3 C-6.79848461 -0.66919231 -4.00961374 -0.58473534 0 0 Z " fill="#F6F5F7" transform="translate(693,229)"/>
<path d="M0 0 C4.62 0 9.24 0 14 0 C12.98824838 5.0587581 12.12697816 6.51550219 8.9375 10.3125 C8.20402344 11.19550781 7.47054687 12.07851562 6.71484375 12.98828125 C6.14894531 13.65214844 5.58304688 14.31601563 5 15 C7.97 15.33 10.94 15.66 14 16 C14 16.66 14 17.32 14 18 C9.38 18 4.76 18 0 18 C1.01175162 12.9412419 1.87302184 11.48449781 5.0625 7.6875 C5.79597656 6.80449219 6.52945313 5.92148438 7.28515625 5.01171875 C7.85105469 4.34785156 8.41695312 3.68398437 9 3 C6.03 3 3.06 3 0 3 C0 2.01 0 1.02 0 0 Z " fill="#888B98" transform="translate(769,226)"/>
<path d="M0 0 C5.28 0 10.56 0 16 0 C16 0.99 16 1.98 16 3 C14.02 3 12.04 3 10 3 C10 8.28 10 13.56 10 19 C8.68 19 7.36 19 6 19 C6 13.72 6 8.44 6 3 C4.02 3 2.04 3 0 3 C0 2.01 0 1.02 0 0 Z " fill="#9294A0" transform="translate(548,226)"/>
<path d="M0 0 C5.28 0 10.56 0 16 0 C16 0.99 16 1.98 16 3 C14.02 3 12.04 3 10 3 C10 8.28 10 13.56 10 19 C8.68 19 7.36 19 6 19 C6 13.72 6 8.44 6 3 C4.02 3 2.04 3 0 3 C0 2.01 0 1.02 0 0 Z " fill="#9092A0" transform="translate(299,226)"/>
<path d="M0 0 C4.95 0 9.9 0 15 0 C15 0.99 15 1.98 15 3 C13.35 3 11.7 3 10 3 C10 8.28 10 13.56 10 19 C8.68 19 7.36 19 6 19 C6 13.72 6 8.44 6 3 C4.02 3 2.04 3 0 3 C0 2.01 0 1.02 0 0 Z " fill="#8B8D9A" transform="translate(619,226)"/>
<path d="M0 0 C1.79158489 -0.02696365 3.58328473 -0.04637917 5.375 -0.0625 C6.37273437 -0.07410156 7.37046875 -0.08570313 8.3984375 -0.09765625 C11 0 11 0 13 1 C13.125 4.375 13.125 4.375 13 8 C12.34 8.66 11.68 9.32 11 10 C11.39504441 12.9628331 12.59817629 15.38326241 14 18 C11.75 17.9375 11.75 17.9375 9 17 C7.32150176 14.7691525 6.24000737 12.52594094 5 10 C5.99 9.67 6.98 9.34 8 9 C8.38218767 7.34385343 8.71395102 5.67542976 9 4 C7.03177114 2.03177114 3.65191291 2.33751619 1 2 C0.67 2.66 0.34 3.32 0 4 C0 2.68 0 1.36 0 0 Z " fill="#858897" transform="translate(347,227)"/>
<path d="M0 0 C5.28 0 10.56 0 16 0 C16 0.99 16 1.98 16 3 C13.69 3 11.38 3 9 3 C9 7.95 9 12.9 9 18 C8.01 18 7.02 18 6 18 C6 13.05 6 8.1 6 3 C4.02 3 2.04 3 0 3 C0 2.01 0 1.02 0 0 Z " fill="#878A97" transform="translate(481,226)"/>
<path d="M0 0 C1.485 0.99 1.485 0.99 3 2 C3 2.99 3 3.98 3 5 C3.9590625 5.4640625 3.9590625 5.4640625 4.9375 5.9375 C7 7 7 7 8 8 C10.33297433 8.04092937 12.66705225 8.04241723 15 8 C15.33 7.01 15.66 6.02 16 5 C16.66 5 17.32 5 18 5 C18.66 3.68 19.32 2.36 20 1 C20.36666667 6.5 20.36666667 6.5 18.625 8.875 C17 10 17 10 15 10 C15 10.66 15 11.32 15 12 C6.10047847 12.29665072 6.10047847 12.29665072 3 10 C0.48163975 7.48163975 0.02091094 6.36245621 -0.1875 2.75 C-0.125625 1.8425 -0.06375 0.935 0 0 Z " fill="#8D8F9C" transform="translate(639,233)"/>
<path d="M0 0 C1.32 0 2.64 0 4 0 C4 6.27 4 12.54 4 19 C2.68 19 1.36 19 0 19 C0 12.73 0 6.46 0 0 Z " fill="#9395A0" transform="translate(733,226)"/>
<path d="M0 0 C2.1875 0.3125 2.1875 0.3125 4 1 C3.52691406 1.38929687 3.05382812 1.77859375 2.56640625 2.1796875 C-5.3487239 8.87591846 -12.20490125 16.40082121 -18 25 C-18.66 24.34 -19.32 23.68 -20 23 C-14.59823237 16.08220494 -8.97900594 9.42713656 -3 3 C-2.50113281 2.39027344 -2.00226562 1.78054687 -1.48828125 1.15234375 C-0.99714844 0.77207031 -0.50601563 0.39179687 0 0 Z " fill="#8474F0" transform="translate(43,54)"/>
<path d="M0 0 C0.99 0 1.98 0 3 0 C3.0809723 2.43816585 3.14046972 4.87364384 3.1875 7.3125 C3.22520508 8.34793945 3.22520508 8.34793945 3.26367188 9.40429688 C3.33707492 14.469107 3.33707492 14.469107 1.75 16.96875 C-1.41304653 18.83268814 -4.40578687 18.17676458 -8 18 C-7.67 17.34 -7.34 16.68 -7 16 C-5.33333333 15.66666667 -3.66666667 15.33333333 -2 15 C-0.58365167 12.16730334 -0.6536995 9.52533562 -0.4375 6.375 C-0.31181641 4.59222656 -0.31181641 4.59222656 -0.18359375 2.7734375 C-0.12300781 1.85820312 -0.06242188 0.94296875 0 0 Z " fill="#828593" transform="translate(721,226)"/>
<path d="M0 0 C0.99 0 1.98 0 3 0 C3 6.27 3 12.54 3 19 C1.68 19 0.36 19 -1 19 C-1.38218767 17.34385343 -1.71395102 15.67542976 -2 14 C-1.67 13.67 -1.34 13.34 -1 13 C-0.76518307 10.81707226 -0.58636677 8.62796826 -0.4375 6.4375 C-0.35371094 5.23996094 -0.26992188 4.04242188 -0.18359375 2.80859375 C-0.12300781 1.88175781 -0.06242187 0.95492187 0 0 Z " fill="#9193A0" transform="translate(470,226)"/>
<path d="M0 0 C0.33 0 0.66 0 1 0 C1.66 1.98 2.32 3.96 3 6 C8.55493924 7.02703748 8.55493924 7.02703748 14 6 C13.67 7.32 13.34 8.64 13 10 C3.98468271 11.61050328 3.98468271 11.61050328 -0.125 9.0625 C-0.74375 8.381875 -1.3625 7.70125 -2 7 C-1.34 4.69 -0.68 2.38 0 0 Z " fill="#8E909D" transform="translate(408,234)"/>
<path d="M0 0 C7 8.75 7 8.75 7 13 C3.7173068 11.50923566 1.06922559 9.61379679 -1.75 7.375 C-2.54921875 6.74335938 -3.3484375 6.11171875 -4.171875 5.4609375 C-5.07679688 4.73777344 -5.07679688 4.73777344 -6 4 C-5.01 4 -4.02 4 -3 4 C-1.29467677 2.05990478 -1.29467677 2.05990478 0 0 Z " fill="#6375F0" transform="translate(216,263)"/>
<path d="M0 0 C0.99 0 1.98 0 3 0 C3 5.94 3 11.88 3 18 C2.01 18 1.02 18 0 18 C0 12.06 0 6.12 0 0 Z " fill="#7B7F8C" transform="translate(582,226)"/>
<path d="M0 0 C0.99 0 1.98 0 3 0 C3 5.61 3 11.22 3 17 C-0.29696105 18.09898702 -1.40494903 17.87124444 -4.6875 17.0625 C-5.49574219 16.86785156 -6.30398438 16.67320312 -7.13671875 16.47265625 C-7.75160156 16.31667969 -8.36648438 16.16070312 -9 16 C-9 15.67 -9 15.34 -9 15 C-5.7 15 -2.4 15 1 15 C0.67 10.05 0.34 5.1 0 0 Z " fill="#33353C" transform="translate(800,118)"/>
<path d="M0 0 C0.33 1.32 0.66 2.64 1 4 C3.97 4 6.94 4 10 4 C10 5.32 10 6.64 10 8 C5.71 8 1.42 8 -3 8 C-2.01 7.67 -1.02 7.34 0 7 C0 4.69 0 2.38 0 0 Z " fill="#A4A6AF" transform="translate(795,237)"/>
<path d="M0 0 C1.32 0.33 2.64 0.66 4 1 C4.33 2.32 4.66 3.64 5 5 C4.01 5 3.02 5 2 5 C2 9.29 2 13.58 2 18 C1.34 18 0.68 18 0 18 C0 12.06 0 6.12 0 0 Z " fill="#808493" transform="translate(369,226)"/>
<path d="M0 0 C0.33 0.66 0.66 1.32 1 2 C0.05125 2.268125 -0.8975 2.53625 -1.875 2.8125 C-5.25267273 3.74986588 -5.25267273 3.74986588 -7 7 C-7.38499891 8.65549531 -7.72793135 10.3222433 -8 12 C-8.66 11.67 -9.32 11.34 -10 11 C-10.36421725 3.5942492 -10.36421725 3.5942492 -8.8125 1.0625 C-5.81442903 -0.69498988 -3.19254101 -1.59627051 0 0 Z " fill="#7F8292" transform="translate(439,227)"/>
<path d="M0 0 C0.66 0 1.32 0 2 0 C1.12060302 6.53266332 1.12060302 6.53266332 0.5 8.9375 C-0.30317324 12.25058962 -0.6051655 15.61570425 -1 19 C-1.66 19 -2.32 19 -3 19 C-3.33 20.32 -3.66 21.64 -4 23 C-4.65720455 14.94924431 -2.22928846 7.64327471 0 0 Z " fill="#8280EF" transform="translate(10,105)"/>
<path d="M0 0 C0.66 0.66 1.32 1.32 2 2 C2.33 1.34 2.66 0.68 3 0 C3.66 0 4.32 0 5 0 C4.67 3.96 4.34 7.92 4 12 C2.68 12 1.36 12 0 12 C0 8.04 0 4.08 0 0 Z " fill="#9799A4" transform="translate(524,232)"/>
<path d="M0 0 C1.26026798 2.52053595 0.91874445 3.8542098 0.5625 6.625 C0.46066406 7.44226563 0.35882813 8.25953125 0.25390625 9.1015625 C0.17011719 9.72804687 0.08632812 10.35453125 0 11 C0.99 11.33 1.98 11.66 3 12 C1.1875 12.6875 1.1875 12.6875 -1 13 C-2.75 12 -2.75 12 -4 10 C-4.4375 6.5 -4.4375 6.5 -4 3 C-2 1.0625 -2 1.0625 0 0 Z " fill="#5B7DF3" transform="translate(103,157)"/>
<path d="M0 0 C1.98 0 3.96 0 6 0 C6.66 1.32 7.32 2.64 8 4 C6 6 6 6 2.875 6.125 C1.451875 6.063125 1.451875 6.063125 0 6 C0 4.02 0 2.04 0 0 Z " fill="#F7F6F8" transform="translate(349,229)"/>
<path d="M0 0 C0.33 0 0.66 0 1 0 C1 5.61 1 11.22 1 17 C0.01 17 -0.98 17 -2 17 C-2.33 15.35 -2.66 13.7 -3 12 C-2.34 12 -1.68 12 -1 12 C-1.01160156 11.21753906 -1.02320313 10.43507812 -1.03515625 9.62890625 C-1.04417969 8.61699219 -1.05320312 7.60507813 -1.0625 6.5625 C-1.07410156 5.55316406 -1.08570313 4.54382813 -1.09765625 3.50390625 C-1 1 -1 1 0 0 Z " fill="#797C8A" transform="translate(540,227)"/>
<path d="M0 0 C3.63 0 7.26 0 11 0 C11 0.66 11 1.32 11 2 C8.03 2 5.06 2 2 2 C2 3.98 2 5.96 2 8 C2.66 8.33 3.32 8.66 4 9 C3.01 9 2.02 9 1 9 C0.67 9.66 0.34 10.32 0 11 C0 7.37 0 3.74 0 0 Z " fill="#7F8291" transform="translate(504,227)"/>
<path d="M0 0 C0.33 0 0.66 0 1 0 C1 5.28 1 10.56 1 16 C-0.32 16 -1.64 16 -3 16 C-2.69262339 13.52009745 -2.37935917 11.04119265 -2.0625 8.5625 C-1.97548828 7.85544922 -1.88847656 7.14839844 -1.79882812 6.41992188 C-1.11328125 1.11328125 -1.11328125 1.11328125 0 0 Z " fill="#7C808D" transform="translate(611,228)"/>
<path d="M0 0 C0.99 0 1.98 0 3 0 C3 4.29 3 8.58 3 13 C2.01 13 1.02 13 0 13 C0 8.71 0 4.42 0 0 Z " fill="#808392" transform="translate(708,227)"/>
<path d="M0 0 C6.96327638 -0.33693273 12.43345544 0.6969113 19 3 C18.67 3.99 18.34 4.98 18 6 C15.74862561 5.37996908 13.49894474 4.75378659 11.25 4.125 C9.99703125 3.77695312 8.7440625 3.42890625 7.453125 3.0703125 C4.75046359 2.23260975 2.4530643 1.37520272 0 0 Z " fill="#8471F0" transform="translate(133,29)"/>
<path d="M0 0 C-9.9 0 -19.8 0 -30 0 C-30 -0.33 -30 -0.66 -30 -1 C-24.46077405 -2.07629851 -18.93500927 -2.43313006 -13.3125 -2.75 C-12.36310547 -2.81832031 -11.41371094 -2.88664062 -10.43554688 -2.95703125 C-9.06946289 -3.03244141 -9.06946289 -3.03244141 -7.67578125 -3.109375 C-6.4369519 -3.18623535 -6.4369519 -3.18623535 -5.1730957 -3.26464844 C-3 -3 -3 -3 0 0 Z " fill="#988EF0" transform="translate(133,57)"/>
<path d="M0 0 C1.32 0 2.64 0 4 0 C4.66 1.32 5.32 2.64 6 4 C4.68 5.65 3.36 7.3 2 9 C-0.29013653 5.5647952 -0.17842973 4.014669 0 0 Z " fill="#838694" transform="translate(524,226)"/>
<path d="M0 0 C1.60332791 -0.08121924 3.20784026 -0.13929134 4.8125 -0.1875 C6.15248047 -0.23970703 6.15248047 -0.23970703 7.51953125 -0.29296875 C10.41647515 0.04918998 11.22555028 0.75393573 13 3 C12.67 3.66 12.34 4.32 12 5 C11.34 5 10.68 5 10 5 C10 4.34 10 3.68 10 3 C6.37 2.67 2.74 2.34 -1 2 C-0.67 1.34 -0.34 0.68 0 0 Z " fill="#7F8190" transform="translate(686,227)"/>
<path d="M0 0 C1.45945288 0.08708669 2.91765868 0.19526907 4.375 0.3125 C5.59316406 0.39951172 5.59316406 0.39951172 6.8359375 0.48828125 C9 1 9 1 11 4 C9.54263913 4.19491452 8.08405407 4.38069358 6.625 4.5625 C5.81289063 4.66691406 5.00078125 4.77132812 4.1640625 4.87890625 C2 5 2 5 0 4 C0 2.68 0 1.36 0 0 Z " fill="#8D919D" transform="translate(814,240)"/>
<path d="M0 0 C0.33 0.66 0.66 1.32 1 2 C4.63 2 8.26 2 12 2 C12 2.66 12 3.32 12 4 C7.38 4 2.76 4 -2 4 C-1.34 2.68 -0.68 1.36 0 0 Z " fill="#7C7F8D" transform="translate(771,240)"/>
<path d="M0 0 C0.33 0 0.66 0 1 0 C1.33 1.98 1.66 3.96 2 6 C2.66 4.68 3.32 3.36 4 2 C4.66 4.97 5.32 7.94 6 11 C3 11 3 11 1.3125 9.4375 C-0.43416783 6.19368832 -0.20922503 3.62656715 0 0 Z " fill="#9294A1" transform="translate(428,232)"/>
<path d="M0 0 C1.98 0.495 1.98 0.495 4 1 C3.67 1.33 3.34 1.66 3 2 C2.76636119 3.84891946 2.58696365 5.70488031 2.4375 7.5625 C2.35371094 8.57441406 2.26992188 9.58632812 2.18359375 10.62890625 C2.12300781 11.41136719 2.06242188 12.19382813 2 13 C1.01 12.67 0.02 12.34 -1 12 C-0.67 8.04 -0.34 4.08 0 0 Z " fill="#A2A4AE" transform="translate(537,226)"/>
<path d="M0 0 C2.0625 0.4375 2.0625 0.4375 4 1 C4 1.66 4 2.32 4 3 C5.32 3.66 6.64 4.32 8 5 C7.34 6.98 6.68 8.96 6 11 C5.67 11 5.34 11 5 11 C4.7525 10.0925 4.505 9.185 4.25 8.25 C2.96018658 4.89648511 1.68028958 3.32291764 -1 1 C-0.67 0.67 -0.34 0.34 0 0 Z " fill="#828593" transform="translate(651,227)"/>
<path d="M0 0 C5.40718817 -0.57934159 8.10649656 -0.34220083 12.5 3 C13.68193081 3.98191175 14.85423174 4.97612198 16 6 C15.34 6.66 14.68 7.32 14 8 C13.608125 7.566875 13.21625 7.13375 12.8125 6.6875 C8.87835328 3.02467374 5.31858055 1.6184396 0 1 C0 0.67 0 0.34 0 0 Z " fill="#576EEE" transform="translate(126,222)"/>
<path d="M0 0 C8.19256018 -0.4726477 8.19256018 -0.4726477 11.5625 1.5 C12.036875 1.995 12.51125 2.49 13 3 C12.67 3.66 12.34 4.32 12 5 C11.34 4.67 10.68 4.34 10 4 C10 3.34 10 2.68 10 2 C6.97580475 2.58803797 3.98241547 3.22678118 1 4 C0.67 2.68 0.34 1.36 0 0 Z " fill="#8F919E" transform="translate(645,226)"/>
<path d="M0 0 C2.31 0.66 4.62 1.32 7 2 C7 2.99 7 3.98 7 5 C5.68 5.33 4.36 5.66 3 6 C0 2.25 0 2.25 0 0 Z " fill="#202431" transform="translate(386,188)"/>
<path d="M0 0 C1.32 0 2.64 0 4 0 C2.125 3.875 2.125 3.875 1 5 C-1.67058851 5.14115161 -4.32432238 5.04247107 -7 5 C-6.67 4.34 -6.34 3.68 -6 3 C-4.33333333 2.66666667 -2.66666667 2.33333333 -1 2 C-0.67 1.34 -0.34 0.68 0 0 Z " fill="#888B98" transform="translate(720,239)"/>
<path d="M0 0 C3.875 0.875 3.875 0.875 5 2 C5.04063832 3.66617115 5.042721 5.33388095 5 7 C4.01 7.33 3.02 7.66 2 8 C2 6.35 2 4.7 2 3 C1.01 2.67 0.02 2.34 -1 2 C-0.67 1.34 -0.34 0.68 0 0 Z " fill="#7C7F8E" transform="translate(822,235)"/>
<path d="M0 0 C3.96 0 7.92 0 12 0 C11.67 1.32 11.34 2.64 11 4 C10.67 3.34 10.34 2.68 10 2 C6.7 2 3.4 2 0 2 C0 1.34 0 0.68 0 0 Z " fill="#7D8190" transform="translate(745,227)"/>
<path d="M0 0 C-0.99 0.99 -1.98 1.98 -3 3 C-5.02045442 2.39816251 -7.02111039 1.72693904 -9 1 C-9.33 0.34 -9.66 -0.32 -10 -1 C-6.06329512 -2.31223496 -3.87511856 -1.24296256 0 0 Z " fill="#9194A0" transform="translate(824,234)"/>
<path d="M0 0 C2 2 2 2 2.125 5.625 C2.08375 6.73875 2.0425 7.8525 2 9 C1.01 9 0.02 9 -1 9 C-1.33 6.36 -1.66 3.72 -2 1 C-1.34 0.67 -0.68 0.34 0 0 Z " fill="#757CF3" transform="translate(87,131)"/>
<path d="M0 0 C-0.33 1.32 -0.66 2.64 -1 4 C-4.3 4.33 -7.6 4.66 -11 5 C-9.68 4.34 -8.36 3.68 -7 3 C-6.319375 2.46375 -5.63875 1.9275 -4.9375 1.375 C-3 0 -3 0 0 0 Z " fill="#9699A4" transform="translate(422,240)"/>
<path d="M0 0 C2.25245881 2.68841859 3.88213958 4.64641875 5 8 C2.625 7.75 2.625 7.75 0 7 C-1.3125 4.9375 -1.3125 4.9375 -2 3 C-1.34 3 -0.68 3 0 3 C0 2.01 0 1.02 0 0 Z " fill="#9799A5" transform="translate(356,237)"/>
<path d="M0 0 C3 3 3 3 3.29296875 5.04296875 C3.1953125 7.02864583 3.09765625 9.01432292 3 11 C2.01 11 1.02 11 0 11 C0 7.37 0 3.74 0 0 Z " fill="#787B8A" transform="translate(487,233)"/>
<path d="M0 0 C2.97 0 5.94 0 9 0 C9 0.99 9 1.98 9 3 C6.03 3 3.06 3 0 3 C0 2.01 0 1.02 0 0 Z " fill="#9396A2" transform="translate(506,234)"/>
<path d="M0 0 C2.05883923 4.11767846 2.96165128 7.54993405 4 12 C1.525 11.01 1.525 11.01 -1 10 C-0.67 6.7 -0.34 3.4 0 0 Z " fill="#91B8EE" transform="translate(244,20)"/>
<path d="M0 0 C0.99 0 1.98 0 3 0 C2.34 4.29 1.68 8.58 1 13 C0.67 13 0.34 13 0 13 C0 8.71 0 4.42 0 0 Z " fill="#848895" transform="translate(582,226)"/>
<path d="M0 0 C0.66 0.33 1.32 0.66 2 1 C1.67 2.32 1.34 3.64 1 5 C-0.98 5 -2.96 5 -5 5 C-5 4.01 -5 3.02 -5 2 C-2.625 0.9375 -2.625 0.9375 0 0 Z " fill="#262B3B" transform="translate(723,170)"/>
<path d="M0 0 C0.33 0.99 0.66 1.98 1 3 C0.01 3.33 -0.98 3.66 -2 4 C-2 4.99 -2 5.98 -2 7 C-2.99 7 -3.98 7 -5 7 C-5.33 6.01 -5.66 5.02 -6 4 C-4.02 2.68 -2.04 1.36 0 0 Z " fill="#7F8190" transform="translate(358,233)"/>
<path d="M0 0 C3.78786597 0.5260925 6.17152224 1.38103911 9 4 C9 4.66 9 5.32 9 6 C5.06326356 4.68775452 2.77280706 3.08089673 0 0 Z " fill="#5570ED" transform="translate(51,226)"/>
<path d="M0 0 C1.485 0.99 1.485 0.99 3 2 C3 2.99 3 3.98 3 5 C3.99 5.33 4.98 5.66 6 6 C4.02 6.99 4.02 6.99 2 8 C0 6 0 6 -0.125 2.875 C-0.08375 1.92625 -0.0425 0.9775 0 0 Z " fill="#9698A3" transform="translate(639,233)"/>
<path d="M0 0 C0.66 0 1.32 0 2 0 C5 4.38461538 5 4.38461538 5 7 C5.99 7.33 6.98 7.66 8 8 C7.34 8.66 6.68 9.32 6 10 C4.99421411 8.71283353 3.99553202 7.42011342 3 6.125 C2.443125 5.40570313 1.88625 4.68640625 1.3125 3.9453125 C0 2 0 2 0 0 Z " fill="#262830" transform="translate(419,173)"/>
<path d="M0 0 C4.21912747 0.4794463 6.79663178 1.16625119 10 4 C5.82412255 5.39195915 3.86525224 3.82323219 0 2 C0 1.34 0 0.68 0 0 Z " fill="#806EF2" transform="translate(144,58)"/>
<path d="M0 0 C2.64 0.33 5.28 0.66 8 1 C8 1.66 8 2.32 8 3 C5.39417629 3.93065133 4.35801776 4.14917407 1.75 3.0625 C1.1725 2.711875 0.595 2.36125 0 2 C0 1.34 0 0.68 0 0 Z " fill="#818492" transform="translate(433,241)"/>
<path d="M0 0 C0.66 0.33 1.32 0.66 2 1 C2 1.99 2 2.98 2 4 C-0.64 4.33 -3.28 4.66 -6 5 C-2.25 1.125 -2.25 1.125 0 0 Z " fill="#7989EF" transform="translate(156,239)"/>
<path d="M0 0 C1.485 0.99 1.485 0.99 3 2 C3 2.66 3 3.32 3 4 C3.66 4.33 4.32 4.66 5 5 C4.01 5.99 3.02 6.98 2 8 C0.23537317 4.91190305 0 3.76687864 0 0 Z " fill="#8E919E" transform="translate(465,234)"/>
<path d="M0 0 C0.99 0 1.98 0 3 0 C3.33 1.32 3.66 2.64 4 4 C3.34 4 2.68 4 2 4 C1.67 4.99 1.34 5.98 1 7 C0 6 0 6 -0.0625 2.9375 C-0.041875 1.968125 -0.02125 0.99875 0 0 Z " fill="#797C8C" transform="translate(596,227)"/>
<path d="M0 0 C1.485 0.99 1.485 0.99 3 2 C3.1875 5.625 3.1875 5.625 3 9 C0.9375 7.3125 0.9375 7.3125 -1 5 C-0.75 2.25 -0.75 2.25 0 0 Z " fill="#938EF3" transform="translate(162,105)"/>
<path d="M0 0 C1.14926266 0.95421808 2.29430541 1.91352045 3.4375 2.875 C4.07558594 3.40867188 4.71367187 3.94234375 5.37109375 4.4921875 C7 6 7 6 8 8 C4.11137013 6.73882275 2.10624401 5.54735833 0 2 C0 1.34 0 0.68 0 0 Z " fill="#7C6DEF" transform="translate(193,57)"/>
<path d="M0 0 C2.50037734 2.17424117 3.43628586 3.73045798 4 7 C1.53199953 5.84826645 -0.04783565 4.95216435 -2 3 C-1.34 3 -0.68 3 0 3 C0 2.01 0 1.02 0 0 Z " fill="#7B8AEA" transform="translate(219,269)"/>
<path d="M0 0 C0.33 0.66 0.66 1.32 1 2 C1.99 2.33 2.98 2.66 4 3 C5.1875 6.0625 5.1875 6.0625 6 9 C0.42857143 3.85714286 0.42857143 3.85714286 0 0 Z " fill="#5A73ED" transform="translate(24,197)"/>
<path d="M0 0 C0.99 0 1.98 0 3 0 C2.34 3.96 1.68 7.92 1 12 C0.67 12 0.34 12 0 12 C0 8.04 0 4.08 0 0 Z " fill="#9799A5" transform="translate(609,226)"/>
<path d="M0 0 C0.99 0 1.98 0 3 0 C2.74438677 2.3431213 2.40729228 4.67843403 2 7 C1.01 7.495 1.01 7.495 0 8 C0 5.36 0 2.72 0 0 Z " fill="#898C9A" transform="translate(382,226)"/>
<path d="M0 0 C0 3 0 3 -1.1875 5.1875 C-3 7 -3 7 -5.6875 7.25 C-6.450625 7.1675 -7.21375 7.085 -8 7 C-7.236875 6.401875 -6.47375 5.80375 -5.6875 5.1875 C-3.6516425 3.53040668 -1.8021721 1.89702326 0 0 Z " fill="#5C6EEB" transform="translate(178,197)"/>
<path d="M0 0 C0.6875 1.8125 0.6875 1.8125 1 4 C-0.4375 5.75 -0.4375 5.75 -2 7 C-2.99 6.67 -3.98 6.34 -5 6 C-3.35 4.02 -1.7 2.04 0 0 Z " fill="#232632" transform="translate(557,151)"/>
<path d="M0 0 C0.99 0.33 1.98 0.66 3 1 C2.67 1.99 2.34 2.98 2 4 C-0.0625 4.6875 -0.0625 4.6875 -2 5 C-1.125 1.125 -1.125 1.125 0 0 Z " fill="#757BF1" transform="translate(73,130)"/>
<path d="M0 0 C0.99 0.33 1.98 0.66 3 1 C1.35 2.65 -0.3 4.3 -2 6 C-2.33 5.01 -2.66 4.02 -3 3 C-2.01 2.01 -1.02 1.02 0 0 Z " fill="#2B2E3A" transform="translate(315,96)"/>
</svg>
